<?xml version="1.0" encoding="UTF-8"?>
<svg id="_레이어_2" data-name="레이어 2" xmlns="http://www.w3.org/2000/svg" viewBox="0 0 304.08 56.1">
  <defs>
    <style>
      .cls-1 {
        fill: #0019ff;
      }
    </style>
  </defs>
  <g id="_레터링" data-name="레터링">
    <g>
      <path class="cls-1" d="M16.26,32.46v16.68h10.14v5.28H0v-5.28h10.2v-16.68h6.06ZM24.9.84v5.1H7.44v23.64h17.46v5.16H1.38V.84h23.52Z"/>
      <path class="cls-1" d="M31.08,6.36V1.14h15.18v53.1h-5.82V6.36h-9.36ZM48.18,6.36V1.14h14.1v53.1h-5.76V6.36h-8.34ZM74.52,0v21.48h7.68V0h5.76v55.26h-5.76v-26.94h-7.68v26.94h-5.76V0h5.76Z"/>
      <path class="cls-1" d="M104.1.54v14.04h20.22V.54h6v52.5h-32.16V.54h5.94ZM104.1,47.76h20.22v-27.72h-20.22v27.72ZM144.3,0v55.26h-5.7V0h5.7Z"/>
      <path class="cls-1" d="M171.72,1.02h30.06v29.52h-30.06V1.02ZM177.54,25.44h18.42V6.12h-18.42v19.32ZM191.28,36.3v13.92h24.42v5.16h-30.66v-19.08h6.24ZM214.86,0v14.34h9.36v5.88h-9.36v19.2h-5.76V0h5.76Z"/>
      <path class="cls-1" d="M253.8,23.1v5.04h-26.4v-5.04h26.4ZM252.24.48v4.98h-17.16v8.52h17.16v4.98h-23.16V.48h23.16ZM251.88,32.7v13.74h-16.5v5.04h17.4v4.62h-23.1v-13.92h16.5v-4.92h-16.98v-4.56h22.68Z"/>
      <path class="cls-1" d="M259.38,6.36V1.14h28.98v53.1h-5.88V6.36h-23.1ZM304.08,0v55.26h-5.76V0h5.76Z"/>
    </g>
  </g>
</svg>